<svg height="512pt" viewBox="0 -106 512.00046 512" width="512pt" xmlns="http://www.w3.org/2000/svg"><path d="m302.964844 299.914062-.640625-.003906c-17.359375-.207031-33.65625-7.875-44.824219-21.0625l-94.472656-103.71875-55.886719 74.90625c-.027344.03125-.050781.066406-.078125.101563-11.707031 15.414062-29.519531 23.527343-47.53125 23.527343-12.558594.003907-25.214844-3.941406-35.964844-12.105468-12.679687-9.625-20.847656-23.613282-23.007812-39.386719-2.15625-15.769531 1.957031-31.433594 11.582031-44.113281l100.503906-133.914063c11.082031-14.589843 27.859375-23.167969 46.085938-23.601562 18.15625-.421875 35.214843 7.261719 46.894531 21.054687l98.4375 108.285156 34.421875-35.886718-9.601563-7.34375c-10.578124-8.089844-16.082031-21.320313-14.363281-34.527344 1.722657-13.207031 10.429688-24.589844 22.722657-29.699219.386718-.164062.78125-.308593 1.183593-.4375l122.480469-39.398437c12.140625-4.78125 26.03125-2.855469 36.421875 5.089844 10.347656 7.917968 15.835937 20.746093 14.464844 33.660156l-3.554688 130.257812c-.015625.515625-.054687 1.03125-.121093 1.546875-1.722657 13.207031-10.425782 24.585938-22.722657 29.699219-5.101562 2.125-10.722656 3.101562-16.242187 2.820312-7.589844-.382812-14.796875-3.027343-20.835938-7.644531l-14.664062-11.21875-86.0625 93.011719c-11.304688 12.777344-27.558594 20.101562-44.625 20.101562zm0 0" fill="#fc5356"/><path d="m497.328125 7.679688c-10.386719-7.945313-24.28125-9.871094-36.421875-5.089844l-122.480469 39.398437c-.402343.128907-.792969.273438-1.179687.4375-12.296875 5.109375-21.003906 16.492188-22.722656 29.699219-1.722657 13.203125 3.78125 26.4375 14.359374 34.527344l9.601563 7.34375-34.421875 35.886718-48.058594-52.867187v180.191406l1.496094 1.640625c11.167969 13.1875 27.464844 20.855469 44.824219 21.0625l.640625.003906c17.066406 0 33.320312-7.324218 44.625-20.101562l86.0625-93.011719 14.664062 11.21875c6.039063 4.617188 13.246094 7.261719 20.839844 7.644531 5.515625.277344 11.136719-.699218 16.242188-2.820312 12.292968-5.113281 21-16.496094 22.71875-29.699219.066406-.515625.105468-1.03125.121093-1.550781l3.554688-130.257812c1.371093-12.910157-4.117188-25.738282-14.464844-33.65625zm0 0" fill="#f70b57"/></svg>