<svg height="512" viewBox="0 0 64 64" width="512" xmlns="http://www.w3.org/2000/svg"><g id="flat"><rect fill="#394d5c" height="24" rx="2" width="36" x="25" y="3"/><path d="m29 7h28v16h-28z" fill="#7fcac9"/><path d="m43 7h14v12h-14z" fill="#f4f4e6"/><path d="m52 10h2v5h-2z" fill="#2d75bb"/><path d="m3 13h32v48h-32z" fill="#efeeca"/><g fill="#195c85"><path d="m6 16h26v2h-26z"/><path d="m21 20h11v2h-11z"/><path d="m19 56h13v2h-13z"/><path d="m19 52h13v2h-13z"/><path d="m22 24h10v2h-10z"/><path d="m22 28h10v2h-10z"/><path d="m28 32h4v2h-4z"/></g><path d="m16 48v13h-9v-13l-4-8v-14a2 2 0 0 1 2-2h12a2 2 0 0 1 2 2v13l3-3a2.122 2.122 0 0 1 3 0 2.122 2.122 0 0 1 0 3z" fill="#ffd782"/><path d="m6 24h2v12h-2z" fill="#f9bb4b"/><path d="m10 24h2v12h-2z" fill="#f9bb4b"/><path d="m14 24h2v12h-2z" fill="#f9bb4b"/><path d="m48 44v17h10v-17l3-2v-8a2 2 0 0 0 -2-2h-10v-7a2 2 0 0 0 -2-2 2 2 0 0 0 -2 2v10l-2-2a2.122 2.122 0 0 0 -3 0 2.122 2.122 0 0 0 0 3z" fill="#ffd782"/><path d="m53 32h2v4h-2z" fill="#f9bb4b"/><path d="m57 32h2v4h-2z" fill="#f9bb4b"/><path d="m49 32h2v4h-2z" fill="#f9bb4b"/></g></svg>